<svg xmlns="http://www.w3.org/2000/svg" width="16" height="16" viewBox="0 0 16 16"><g class="nc-icon-wrapper" fill="#111111"><path d="M11.5,15.163l.867.263a1.612,1.612,0,0,0,1.989-.9l1-2.724c.7-1.909-1.239-3.751-3.367-3.2l-.487.126L11.013,8.6c-2.128-.553-4.067,1.289-3.367,3.2l1,2.724a1.612,1.612,0,0,0,1.989.9Z" fill="none" stroke="#111111" stroke-linecap="round" stroke-linejoin="round" data-color="color-2"></path> <path d="M15,4h0a3,3,0,0,1-3,3h0A3,3,0,0,1,15,4Z" fill="#111111" data-cap="butt" data-color="color-2" data-stroke="none"></path> <polyline points="6.5 15.5 0.5 15.5 0.5 0.5 13.5 0.5 13.5 2.5" fill="none" stroke="#111111" stroke-linecap="round" stroke-linejoin="round"></polyline> <line x1="3.5" y1="4.5" x2="7.5" y2="4.5" fill="none" stroke="#111111" stroke-linecap="round" stroke-linejoin="round"></line> <line x1="3.5" y1="10.5" x2="4.5" y2="10.5" fill="none" stroke="#111111" stroke-linecap="round" stroke-linejoin="round"></line> <line x1="9.5" y1="4.5" x2="10.5" y2="4.5" fill="none" stroke="#111111" stroke-linecap="round" stroke-linejoin="round"></line> <line x1="3.5" y1="7.5" x2="6.5" y2="7.5" fill="none" stroke="#111111" stroke-linecap="round" stroke-linejoin="round"></line></g></svg>