<svg xmlns="http://www.w3.org/2000/svg" width="16" height="16" viewBox="0 0 16 16"><g class="nc-icon-wrapper" fill="#111111"><circle data-color="color-2" fill="none" stroke="#111111" stroke-linecap="round" stroke-linejoin="round" stroke-miterlimit="10" cx="8" cy="8" r="2.5"></circle> <path fill="none" stroke="#111111" stroke-linecap="round" stroke-linejoin="round" stroke-miterlimit="10" d="M15.5,9V7 l-2.177-0.363c-0.131-0.512-0.332-0.994-0.595-1.437l1.283-1.796L12.596,1.99L10.8,3.272c-0.443-0.263-0.925-0.464-1.437-0.595 L9,0.5H7L6.637,2.677C6.125,2.808,5.643,3.009,5.2,3.272L3.404,1.99L1.99,3.404L3.272,5.2C3.009,5.643,2.808,6.125,2.677,6.637 L0.5,7v2l2.177,0.363c0.131,0.512,0.332,0.994,0.595,1.437L1.99,12.596l1.414,1.414L5.2,12.728c0.443,0.263,0.925,0.464,1.437,0.595 L7,15.5h2l0.363-2.177c0.512-0.131,0.994-0.332,1.437-0.595l1.796,1.283l1.414-1.414L12.728,10.8 c0.263-0.443,0.464-0.925,0.595-1.437L15.5,9z"></path> </g></svg>