<svg xmlns="http://www.w3.org/2000/svg" xmlns:xlink="http://www.w3.org/1999/xlink" x="0px" y="0px" width="80px" height="16px" viewBox="0 0 120 24">
  <defs>
    <path id="wprm-star-full" fill="#343434" d="M12.712,1.942l2.969,6.015l6.638,0.965c0.651,0.095,0.911,0.895,0.44,1.354l-4.804,4.682l1.134,6.612c0.111,0.649-0.57,1.143-1.152,0.837L12,19.286l-5.938,3.122C5.48,22.714,4.799,22.219,4.91,21.57l1.134-6.612l-4.804-4.682c-0.471-0.459-0.211-1.26,0.44-1.354l6.638-0.965l2.969-6.015C11.579,1.352,12.421,1.352,12.712,1.942z"/>
    <polygon id="wprm-star-empty" fill="none" stroke="#343434" stroke-width="2" stroke-linecap="square" stroke-miterlimit="10" points="12,2.6 15,9 21.4,9 16.7,13.9 18.6,21.4 12,17.6 5.4,21.4 7.3,13.9 2.6,9 9,9" stroke-linejoin="miter"/>
  </defs>
	<use xlink:href="#wprm-star-full" x="0" y="0" />
	<use xlink:href="#wprm-star-full" x="24" y="0" />
	<use xlink:href="#wprm-star-full" x="48" y="0" />
	<use xlink:href="#wprm-star-full" x="72" y="0" />
	<use xlink:href="#wprm-star-empty" x="96" y="0" />
</svg>