<svg xmlns="http://www.w3.org/2000/svg" width="16" height="16" viewBox="0 0 16 16"><g class="nc-icon-wrapper" stroke-width="1" fill="#111111" stroke="#111111"><polyline points="0.5 4.5 0.5 2.5 10.5 2.5 10.5 4.5" fill="none" stroke="#111111" stroke-linecap="round" stroke-linejoin="round"></polyline> <line x1="5.5" y1="2.5" x2="5.5" y2="13.5" fill="none" stroke="#111111" stroke-linecap="round" stroke-linejoin="round"></line> <line x1="3.5" y1="13.5" x2="7.5" y2="13.5" fill="none" stroke="#111111" stroke-linecap="round" stroke-linejoin="round"></line> <path d="M16,4.324H12.907V3.566l1.04-1.053q.447-.465.584-.636a1.437,1.437,0,0,0,.191-.293.65.65,0,0,0,.053-.257.335.335,0,0,0-.107-.262.444.444,0,0,0-.3-.1.82.82,0,0,0-.406.115,2.935,2.935,0,0,0-.465.34L12.86.682a3.454,3.454,0,0,1,.554-.421A1.972,1.972,0,0,1,13.9.068,2.354,2.354,0,0,1,14.5,0a1.8,1.8,0,0,1,.739.146,1.155,1.155,0,0,1,.5.416,1.063,1.063,0,0,1,.179.6,1.627,1.627,0,0,1-.063.464,1.64,1.64,0,0,1-.193.419,2.943,2.943,0,0,1-.349.433q-.218.226-.925.863v.029H16Z" data-cap="butt" data-color="color-2" data-stroke="none" stroke="none"></path></g></svg>