<svg xmlns="http://www.w3.org/2000/svg" xmlns:xlink="http://www.w3.org/1999/xlink" x="0px" y="0px" width="16" height="16" viewBox="0 0 16 16"><g class="nc-icon-wrapper" fill="#000000" transform="translate(1.5999999999999996 1.5999999999999996) scale(0.8)"><path fill="#000000" d="M15,2c0.6,0,1-0.4,1-1s-0.4-1-1-1H1C0.4,0,0,0.4,0,1s0.4,1,1,1h1c0.1,2.4,0.8,4.5,2,6c-1.2,1.4-2,3.6-2,6H1 c-0.6,0-1,0.4-1,1s0.4,1,1,1h14c0.6,0,1-0.4,1-1s-0.4-1-1-1h-1c-0.1-2.5-0.8-4.6-2-6c1.3-1.5,2-3.6,2-6H15z M9.9,7.3L9,8.1l1,0.7 c1.2,0.9,2,2.9,2.1,5.2H4c0.1-2.3,0.9-4.3,2.1-5.2l1-0.7L6.1,7.3C4.8,6.1,4.1,4.2,4,2h8C11.9,4.2,11.2,6.1,9.9,7.3z"></path></g></svg>